<?xml version="1.0" encoding="UTF-8"?>
<svg width="21px" height="21px" viewBox="0 0 21 21" version="1.1" xmlns="http://www.w3.org/2000/svg" xmlns:xlink="http://www.w3.org/1999/xlink">
    <!-- Generator: Sketch 42 (36781) - http://www.bohemiancoding.com/sketch -->
    <title>maximize</title>
    <desc>Created with Sketch.</desc>
    <defs></defs>
    <g id="Page-1" stroke="none" stroke-width="1" fill="none" fill-rule="evenodd">
        <g id="Full-Color" transform="translate(-352.000000, -252.000000)" fill="#FFFFFF">
            <g id="maximize" transform="translate(352.000000, 252.000000)">
                <path d="M0.5,14.0031 C0.224,14.0031 0,14.2271 0,14.5031 L0,20.5031 C0,20.5671 0.013,20.6331 0.039,20.6941 C0.089,20.8161 0.187,20.9141 0.309,20.9641 C0.37,20.9891 0.435,21.0031 0.5,21.0031 L6.5,21.0031 C6.776,21.0031 7,20.7791 7,20.5031 C7,20.2271 6.776,20.0031 6.5,20.0031 L1.707,20.0031 L8.854,12.8571 C9.049,12.6611 9.049,12.3451 8.854,12.1491 C8.658,11.9541 8.342,11.9541 8.146,12.1491 L1,19.2961 L1,14.5031 C1,14.2271 0.776,14.0031 0.5,14.0031 M12.146,8.1491 L19.293,1.0031 L14.5,1.0031 C14.224,1.0031 14,0.7791 14,0.5031 C14,0.2271 14.224,0.0031 14.5,0.0031 L20.5,0.0031 C20.565,0.0031 20.63,0.0171 20.691,0.0421 C20.813,0.0921 20.911,0.1901 20.961,0.3121 C20.987,0.3731 21,0.4391 21,0.5031 L21,6.5031 C21,6.7791 20.776,7.0031 20.5,7.0031 C20.224,7.0031 20,6.7791 20,6.5031 L20,1.7101 L12.854,8.8571 C12.756,8.9541 12.628,9.0031 12.5,9.0031 C12.372,9.0031 12.244,8.9541 12.146,8.8571 C11.951,8.6611 11.951,8.3451 12.146,8.1491" id="Fill-218"></path>
            </g>
        </g>
    </g>
</svg>