<?xml version="1.0" encoding="UTF-8" standalone="no"?>
<!-- Uploaded to: SVG Repo, www.svgrepo.com, Generator: SVG Repo Mixer Tools -->

<svg
   aria-label="Research Gate"
   role="img"
   viewBox="0 0 512 512"
   version="1.1"
   id="svg2"
   sodipodi:docname="rg.svg"
   inkscape:version="1.4 (86a8ad7, 2024-10-11)"
   xmlns:inkscape="http://www.inkscape.org/namespaces/inkscape"
   xmlns:sodipodi="http://sodipodi.sourceforge.net/DTD/sodipodi-0.dtd"
   xmlns="http://www.w3.org/2000/svg"
   xmlns:svg="http://www.w3.org/2000/svg"
   fill="#00d0af">
  <defs
     id="defs2" />
  <sodipodi:namedview
     id="namedview2"
     pagecolor="#ffffff"
     bordercolor="#000000"
     borderopacity="0.25"
     inkscape:showpageshadow="2"
     inkscape:pageopacity="0.0"
     inkscape:pagecheckerboard="0"
     inkscape:deskcolor="#d1d1d1"
     inkscape:zoom="1.0800781"
     inkscape:cx="255.53707"
     inkscape:cy="256"
     inkscape:window-width="1366"
     inkscape:window-height="705"
     inkscape:window-x="-8"
     inkscape:window-y="-8"
     inkscape:window-maximized="1"
     inkscape:current-layer="svg2" />
  <path
     id="rect1"
     d="M 76.800781 0 C 34.25358 0 0 34.25358 0 76.800781 L 0 435.19922 C 0 477.74642 34.25358 512 76.800781 512 L 435.19922 512 C 477.74642 512 512 477.74642 512 435.19922 L 512 76.800781 C 512 34.25358 477.74642 0 435.19922 0 L 76.800781 0 z M 329.65039 118.81055 C 340 118.79688 347 121.75 354 127 C 359 131 363 137 363 140 C 363 141 360 142 357 144 L 351 147 L 348 144 C 343 138 339 135 334 133 C 324 130 314 135 309 144 C 306 149 306 150 306 173 C 306 195 306 198 309 202 C 313 209 321 213 330 212 C 343 211 350 202 350 188 L 350 181 L 340 181 L 330 181 L 330 168 L 366 168 L 366 183 C 366 195 365 199 363 205 C 357 220 340 229 321 227 L 321 228 C 296 224 287 208 289 167 C 290 146 292 137 300 129 C 307 122 313 120 325 119 C 326.625 118.875 328.17188 118.8125 329.65039 118.81055 z M 179.61523 182.73438 C 218.59375 182.40625 228 184.375 242 194 C 257 204 264 218 262 237 C 261 258 245 279 225 287 C 221 288 218 290 218 290 C 218 292 235 318 246 333 C 261 354 273 365 282 370 C 286 372 291 373 292 373 C 295 373 295 374 295 377 C 295 380 294 382 293 382 C 288.57654 383.76938 277.12812 383.9668 269.69531 382.60547 C 270.14229 382.73207 270.54021 382.87739 271 383 L 267 382 C 267.80716 382.23062 268.72654 382.42804 269.69531 382.60547 C 255.56015 378.60194 247.60152 372.50956 235 357 C 226 345 209 318 200 304 L 194 293 L 170 293 L 170 327 C 171 370 170 369 189 372 L 199 373 L 199 377 L 199 381 L 119 381 L 119 377 C 119 373 120 373 128 371 C 138 369 142 366 143 357 C 144 353 144 326 144 278 C 144 208 143 206 141 201 C 138 196 134 194 123 193 C 119 192 118 192 118 188 L 118 184 L 161 183 C 167.875 182.875 174.04688 182.78125 179.61523 182.73438 z M 191.19922 196.50781 C 187.37891 196.46094 183.3125 196.625 179 197 L 169 198 L 169 237 C 169 273 169 277 171 277 C 172 277 180 278 189 277 C 203 277 206 276 213 273 L 214 274 C 228 267 236 256 237 239 C 238 226 235 217 227 209 C 219.6875 200.875 207.75391 196.71094 191.19922 196.50781 z " />
</svg>
