<svg width="1653" height="993" xmlns="http://www.w3.org/2000/svg" xmlns:xlink="http://www.w3.org/1999/xlink" xml:space="preserve" overflow="hidden"><defs><clipPath id="clip0"><rect x="2388" y="699" width="1653" height="993"/></clipPath></defs><g clip-path="url(#clip0)" transform="translate(-2388 -699)"><rect x="2389" y="700" width="1650" height="990" fill="#FFFFFF"/><g><path d="M2519.5 1426.55 3954.5 1426.55M2519.5 1313.54 3954.5 1313.54M2519.5 1200.54 3954.5 1200.54M2519.5 1088.54 3954.5 1088.54M2519.5 975.532 3954.5 975.532M2519.5 862.529 3954.5 862.529M2519.5 749.5 3954.5 749.5" stroke="#D9D9D9" stroke-width="3.4375" stroke-linejoin="round" stroke-miterlimit="10" fill="none"/></g><g><path d="M2519.5 1538.5 3954.5 1538.5" stroke="#D9D9D9" stroke-width="3.4375" stroke-linejoin="round" stroke-miterlimit="10" fill="none" fill-rule="evenodd"/></g><g><path d="M2521 1507.05 2522.08 1497.05 2524.08 1496.05 2526.08 1498.05 2528.08 1506.05 2530.08 1511.05 2531.08 1521.05 2533.08 1525 2535.08 1520.05 2537.08 1512.05 2538.08 1507.05 2540.08 1502.05 2542.08 1501.05 2544.08 1495.05 2546.08 1492.05 2547.08 1493.05 2549.08 1502.05 2551.08 1512.05 2553.08 1517.05 2555.08 1520.05 2556.08 1512.05 2558.08 1507.05 2560.08 1503.05 2562.08 1499.05 2563.08 1496.05 2565.08 1488.05 2567.08 1482.05 2569.08 1485.05 2571.08 1493.05 2572.08 1506.05 2574.08 1515.05 2576.08 1517.05 2578.08 1511.05 2579.08 1504.05 2581.08 1500.05 2583.08 1495.05 2585.08 1491.05 2587.08 1485.05 2588.08 1479.05 2590.08 1484.05 2592.08 1491.05 2594.08 1501.05 2596.09 1511.05 2597.09 1509.05 2599.09 1504.05 2601.09 1499.05 2603.09 1494.05 2604.09 1491.05 2606.09 1484.05 2608.09 1479.05 2610.09 1477.05 2612.09 1479.05 2613.09 1485.05 2615.09 1497.05 2617.09 1504.05 2619.09 1508.05 2621.09 1501.05 2622.09 1495.05 2624.09 1490.05 2626.09 1488.05 2628.09 1483.05 2629.09 1475.05 2631.09 1470.05 2633.09 1474.05 2635.09 1484.05 2637.09 1495.05 2638.09 1504.05 2640.09 1505.05 2642.09 1499.05 2644.09 1492.05 2645.09 1485.05 2647.09 1482.05 2649.09 1478.05 2651.09 1472.05 2653.09 1470.05 2654.09 1472.05 2656.09 1480.05 2658.09 1490.05 2660.09 1501.05 2662.09 1500.05 2663.09 1496.05 2665.09 1490.05 2667.09 1486.05 2669.09 1480.05 2670.09 1477.05 2672.09 1470.05 2674.09 1470.05 2676.09 1472.05 2678.09 1476.05 2679.09 1489.05 2681.09 1495.05 2683.09 1498.05 2685.09 1489.05 2687.09 1486.05 2688.09 1479.05 2690.09 1473.05 2692.09 1469.05 2694.09 1462.05 2695.09 1459.05 2697.09 1461.05 2699.09 1469.05 2701.09 1480.05 2703.09 1490.05 2704.09 1493.05 2706.09 1484.05 2708.09 1477.05 2710.09 1469.05 2711.09 1468.05 2713.09 1465.05 2715.09 1458.05 2717.09 1454.05 2719.09 1459.05 2720.09 1468.05 2722.09 1477.05 2724.09 1487.05 2726.09 1486.05 2728.09 1478.05 2729.09 1471.05 2731.09 1468.05 2733.09 1465.05 2735.09 1461.05 2736.09 1454.05 2738.09 1451.05 2740.09 1452.05 2742.09 1459.05 2744.09 1471.05 2745.09 1481.05 2747.09 1481.05 2749.09 1475.05 2751.09 1466.05 2753.09 1460.05 2754.09 1458.05 2756.09 1451.05 2758.09 1445.05 2760.09 1441.05 2761.09 1445.05 2763.09 1449.05 2765.09 1462.05 2767.09 1469.05 2769.09 1472.05 2770.09 1466.05 2772.09 1459.05 2774.09 1454.05 2776.09 1449.05 2777.09 1443.05 2779.09 1437.05 2781.09 1437.05 2783.09 1439.05 2785.09 1447.05 2786.09 1456.05 2788.09 1465.05 2790.09 1465.05 2792.09 1460.05 2794.09 1454.05 2795.09 1448.05 2797.09 1445.05 2799.09 1442.05 2801.09 1439.05 2802.09 1432.05 2804.09 1434.05 2806.09 1441.05 2808.09 1452.05 2810.09 1464.05 2811.09 1462.05 2813.09 1455.05 2815.09 1449.05 2817.09 1444.05 2819.09 1439.05 2820.09 1439.05 2822.09 1428.05 2824.09 1426.05 2826.09 1431.05 2827.09 1437.05 2829.09 1447.05 2831.09 1455.05 2833.09 1453.05 2835.09 1446.05 2836.09 1440.05 2838.09 1434.05 2840.09 1429.05 2842.09 1424.05 2843.09 1418.05 2845.09 1412.05 2847.09 1414.05 2849.09 1421.05 2851.09 1430.05 2852.09 1440.05 2854.09 1442.05 2856.09 1436.05 2858.09 1434.05 2860.09 1430.05 2861.09 1422.05 2863.09 1418.05 2865.09 1411.05 2867.09 1408.05 2868.09 1414.05 2870.09 1420.05 2872.09 1431.05 2874.09 1441.05 2876.09 1441.05 2877.09 1436.05 2879.09 1428.05 2881.09 1422.05 2883.09 1418.05 2885.09 1415.05 2886.09 1409.05 2888.09 1404.05 2890.09 1407.05 2892.09 1415.05 2893.09 1426.05 2895.09 1435.05 2897.09 1435.05 2899.09 1430.05 2901.1 1422.05 2902.1 1417.05 2904.1 1411.05 2906.1 1407.05 2908.1 1399.05 2909.1 1399.05 2911.1 1404.05 2913.1 1409.05 2915.1 1422.05 2917.1 1432.05 2918.1 1433.05 2920.1 1425.05 2922.1 1417.05 2924.1 1411.05 2926.1 1408.05 2927.1 1398.05 2929.1 1391.05 2931.1 1387.05 2933.1 1391.05 2934.1 1399.05 2936.1 1412.05 2938.1 1419.05 2940.1 1419.05 2942.1 1412.05 2943.1 1406.05 2945.1 1398.05 2947.1 1396.05 2949.1 1389.05 2951.1 1383.05 2952.1 1381.05 2954.1 1381.05 2956.1 1389.05 2958.1 1401.05 2959.1 1413.05 2961.1 1412.05 2963.1 1405.05 2965.1 1398.05 2967.1 1391.05 2968.1 1388.05 2970.1 1379.05 2972.1 1376.05 2974.1 1374.05 2975.1 1374.05 2977.1 1384.05 2979.1 1394.05 2981.1 1404.05 2983.1 1402.05 2984.1 1396.05 2986.1 1388.05 2988.1 1382.05 2990.1 1379.05 2992.1 1369.04 2993.1 1365.04 2995.1 1362.04 2997.1 1362.04 2999.1 1373.05 3000.1 1383.05 3002.1 1391.05 3004.1 1391.05 3006.1 1385.05 3008.1 1379.05 3009.1 1374.05 3011.1 1367.04 3013.1 1361.04 3015.1 1355.04 3017.1 1353.04 3018.1 1355.04 3020.1 1365.04 3022.1 1378.05 3024.1 1387.05 3025.1 1386.05 3027.1 1378.05 3029.1 1370.04 3031.1 1365.04 3033.1 1360.04 3034.1 1354.04 3036.1 1347.04 3038.1 1343.04 3040.1 1348.04 3041.1 1356.04 3043.1 1368.04 3045.1 1379.05 3047.1 1379.05 3049.1 1373.05 3050.1 1365.04 3052.1 1361.04 3054.1 1354.04 3056.1 1351.04 3058.1 1339.04 3059.1 1335.04 3061.1 1337.04 3063.1 1345.04 3065.1 1356.04 3066.1 1367.04 3068.1 1367.04 3070.1 1360.04 3072.1 1352.04 3074.1 1346.04 3075.1 1342.04 3077.1 1338.04 3079.1 1328.04 3081.1 1326.04 3083.1 1329.04 3084.1 1337.04 3086.1 1349.04 3088.1 1361.04 3090.1 1359.04 3091.1 1351.04 3093.1 1342.04 3095.1 1339.04 3097.1 1334.04 3099.1 1325.04 3100.1 1321.04 3102.1 1317.04 3104.1 1321.04 3106.1 1331.04 3107.1 1340.04 3109.1 1350.04 3111.1 1351.04 3113.1 1343.04 3115.1 1335.04 3116.1 1332.04 3118.1 1328.04 3120.1 1323.04 3122.1 1314.04 3124.1 1310.04 3125.1 1314.04 3127.1 1323.04 3129.1 1335.04 3131.1 1339.04 3132.1 1343.04 3134.1 1335.04 3136.1 1328.04 3138.1 1321.04 3140.1 1319.04 3141.1 1314.04 3143.1 1306.04 3145.1 1301.04 3147.1 1304.04 3149.1 1312.04 3150.1 1324.04 3152.1 1332.04 3154.1 1332.04 3156.1 1324.04 3157.1 1317.04 3159.1 1311.04 3161.1 1304.04 3163.1 1299.04 3165.1 1293.04 3166.1 1289.04 3168.1 1292.04 3170.1 1298.04 3172.1 1311.04 3174.1 1319.04 3175.1 1317.04 3177.1 1311.04 3179.1 1304.04 3181.1 1296.04 3182.1 1294.04 3184.1 1290.04 3186.1 1281.04 3188.1 1280.04 3190.1 1283.04 3191.1 1291.04 3193.1 1303.04 3195.1 1313.04 3197.1 1312.04 3198.1 1305.04 3200.1 1297.04 3202.1 1292.04 3204.1 1285.04 3206.1 1281.04 3207.11 1277.04 3209.11 1272.04 3211.11 1277.04 3213.11 1286.04 3215.11 1296.04 3216.11 1306.04 3218.11 1304.04 3220.11 1296.04 3222.11 1289.04 3223.11 1286.04 3225.11 1281.04 3227.11 1272.04 3229.11 1264.04 3231.11 1261.04 3232.11 1267.04 3234.11 1278.04 3236.11 1291.04 3238.11 1300.04 3240.11 1300.04 3241.11 1291.04 3243.11 1284.04 3245.11 1278.04 3247.11 1273.04 3248.11 1268.04 3250.11 1261.04 3252.11 1259.04 3254.11 1260.04 3256.11 1273.04 3257.11 1285.04 3259.11 1296.04 3261.11 1294.04 3263.11 1288.04 3264.11 1281.04 3266.11 1273.04 3268.11 1272.04 3270.11 1265.04 3272.11 1260.04 3273.11 1255.04 3275.11 1259.04 3277.11 1271.04 3279.11 1281.04 3281.11 1290.04 3282.11 1290.04 3284.11 1282.04 3286.11 1274.04 3288.11 1266.04 3289.11 1262.04 3291.11 1256.04 3293.11 1249.04 3295.11 1247.04 3297.11 1252.04 3298.11 1260.04 3300.11 1271.04 3302.11 1280.04 3304.11 1278.04 3306.11 1270.04 3307.11 1262.04 3309.11 1257.04 3311.11 1251.04 3313.11 1246.04 3314.11 1238.04 3316.11 1235.04 3318.11 1238.04 3320.11 1247.04 3322.11 1261.04 3323.11 1267.04 3325.11 1268.04 3327.11 1259.04 3329.11 1252.04 3330.11 1245.04 3332.11 1238.04 3334.11 1233.04 3336.11 1231.04 3338.11 1227.04 3339.11 1229.04 3341.11 1236.04 3343.11 1248.04 3345.11 1259.04 3347.11 1259.04 3348.11 1251.04 3350.11 1244.04 3352.11 1239.04 3354.11 1233.04 3355.11 1231.04 3357.11 1220.04 3359.11 1219.04 3361.11 1225.04 3363.11 1232.04 3364.11 1244.04 3366.11 1255.04 3368.11 1252.04 3370.11 1242.04 3372.11 1232.04 3373.11 1227.04 3375.11 1223.04 3377.11 1216.04 3379.11 1208.04 3380.11 1203.04 3382.11 1206.04 3384.11 1212.04 3386.11 1223.04 3388.11 1234.04 3389.11 1231.04 3391.11 1225.04 3393.11 1216.04 3395.11 1210.04 3396.11 1205.04 3398.11 1202.04 3400.11 1194.04 3402.11 1194.04 3404.11 1198.04 3405.11 1203.04 3407.11 1217.04 3409.11 1229.04 3411.11 1226.04 3413.11 1218.04 3414.11 1211.04 3416.11 1204.04 3418.11 1202.04 3420.11 1196.04 3421.11 1190.04 3423.11 1191.04 3425.11 1190.04 3427.11 1201.04 3429.11 1210.04 3430.11 1217.04 3432.11 1217.04 3434.11 1209.04 3436.11 1202.04 3438.11 1196.04 3439.11 1191.04 3441.11 1186.04 3443.11 1181.04 3445.11 1178.04 3446.11 1182.04 3448.11 1191.04 3450.11 1202.04 3452.11 1210.04 3454.11 1209.04 3455.11 1201.04 3457.11 1193.04 3459.11 1185.04 3461.11 1182.04 3462.11 1177.04 3464.11 1171.04 3466.11 1167.04 3468.11 1169.04 3470.11 1177.04 3471.11 1189.04 3473.11 1196.04 3475.11 1197.04 3477.11 1187.04 3479.11 1178.04 3480.11 1172.04 3482.11 1168.04 3484.11 1163.04 3486.11 1156.04 3487.11 1151.04 3489.11 1153.04 3491.11 1162.04 3493.11 1175.04 3495.11 1182.04 3496.11 1182.04 3498.11 1173.04 3500.11 1166.04 3502.11 1160.04 3504.11 1155.04 3505.11 1150.04 3507.11 1141.04 3509.11 1140.04 3511.12 1145.04 3512.12 1158.04 3514.12 1166.04 3516.12 1176.04 3518.12 1175.04 3520.12 1165.04 3521.12 1157.04 3523.12 1152.04 3525.12 1145.04 3527.12 1139.04 3528.12 1130.04 3530.12 1129.04 3532.12 1131.04 3534.12 1139.04 3536.12 1150.04 3537.12 1162.04 3539.12 1160.04 3541.12 1153.04 3543.12 1143.04 3545.12 1135.04 3546.12 1131.04 3548.12 1128.04 3550.12 1117.04 3552.12 1115.04 3553.12 1120.04 3555.12 1129.04 3557.12 1141.04 3559.12 1150.04 3561.12 1148.04 3562.12 1142.04 3564.12 1133.04 3566.12 1127.04 3568.12 1121.04 3570.12 1117.04 3571.12 1106.04 3573.12 1106.04 3575.12 1109.04 3577.12 1118.04 3578.12 1132.04 3580.12 1138.04 3582.12 1137.04 3584.12 1129.04 3586.12 1121.04 3587.12 1112.04 3589.12 1110.04 3591.12 1109.04 3593.12 1103.04 3594.12 1095.04 3596.12 1099.04 3598.12 1107.04 3600.12 1120.04 3602.12 1125.04 3603.12 1126.04 3605.12 1120.04 3607.12 1112.04 3609.12 1104.04 3611.12 1101.04 3612.12 1093.04 3614.12 1089.04 3616.12 1086.04 3618.12 1090.04 3619.12 1098.04 3621.12 1109.04 3623.12 1116.04 3625.12 1118.04 3627.12 1109.04 3628.12 1101.04 3630.12 1094.04 3632.12 1086.04 3634.12 1080.04 3636.12 1073.04 3637.12 1070.04 3639.12 1075.04 3641.12 1086.04 3643.12 1096.04 3644.12 1105.04 3646.12 1102.04 3648.12 1094.04 3650.12 1088.04 3652.12 1080.04 3653.12 1076.04 3655.12 1072.04 3657.12 1069.04 3659.12 1063.03 3660.12 1066.03 3662.12 1073.04 3664.12 1086.04 3666.12 1092.04 3668.12 1093.04 3669.12 1085.04 3671.12 1076.04 3673.12 1069.04 3675.12 1065.03 3677.12 1062.03 3678.12 1052.03 3680.12 1049.03 3682.12 1055.03 3684.12 1062.03 3685.12 1073.04 3687.12 1081.04 3689.12 1081.04 3691.12 1070.04 3693.12 1062.03 3694.12 1055.03 3696.12 1048.03 3698.12 1045.03 3700.12 1039.03 3702.12 1032.03 3703.12 1038.03 3705.12 1046.03 3707.12 1058.03 3709.12 1067.03 3710.12 1066.03 3712.12 1058.03 3714.12 1048.03 3716.12 1043.03 3718.12 1041.03 3719.12 1032.03 3721.12 1023.03 3723.12 1021.03 3725.12 1024.03 3726.12 1036.03 3728.12 1048.03 3730.12 1057.03 3732.12 1053.03 3734.12 1046.03 3735.12 1037.03 3737.12 1031.03 3739.12 1029.03 3741.12 1022.03 3743.12 1013.03 3744.12 1008.03 3746.12 1015.03 3748.12 1023.03 3750.12 1037.03 3751.12 1044.03 3753.12 1040.03 3755.12 1030.03 3757.12 1020.03 3759.12 1016.03 3760.12 1008.03 3762.12 1003.03 3764.12 989.032 3766.12 987.032 3768.12 992.033 3769.12 1006.03 3771.12 1018.03 3773.12 1025.03 3775.12 1022.03 3776.12 1011.03 3778.12 1006.03 3780.12 996.033 3782.12 994.033 3784.12 989.032 3785.12 980.032 3787.12 976.032 3789.12 980.032 3791.12 990.032 3792.12 1002.03 3794.12 1012.03 3796.12 1010.03 3798.12 1002.03 3800.12 992.033 3801.12 986.032 3803.12 984.032 3805.12 978.032 3807.12 973.032 3809.12 967.032 3810.12 970.032 3812.12 982.032 3814.12 991.032 3816.12 999.033 3817.12 997.033 3819.13 985.032 3821.13 979.032 3823.13 970.032 3825.13 964.032 3826.13 963.032 3828.13 955.031 3830.13 948.031 3832.13 952.031 3834.13 964.032 3835.13 974.032 3837.13 982.032 3839.13 982.032 3841.13 973.032 3842.13 964.032 3844.13 955.031 3846.13 951.031 3848.13 949.031 3850.13 939.031 3851.13 934.031 3853.13 938.031 3855.13 950.031 3857.13 960.031 3858.13 967.032 3860.13 967.032 3862.13 958.031 3864.13 951.031 3866.13 944.031 3867.13 937.031 3869.13 932.031 3871.13 925.03 3873.13 924.03 3875.13 925.03 3876.13 936.031 3878.13 950.031 3880.13 957.031 3882.13 953.031 3883.13 947.031 3885.13 938.031 3887.13 930.03 3889.13 923.03 3891.13 926.03 3892.13 918.03 3894.13 913.03 3896.13 914.03 3898.13 925.03 3900.13 935.031 3901.13 942.031 3903.13 943.031 3905.13 933.031 3907.13 925.03 3908.13 922.03 3910.13 917.03 3912.13 913.03 3914.13 900.029 3916.13 896.029 3917.13 898.029 3919.13 909.03 3921.13 921.03 3923.13 927.03 3924.13 926.03 3926.13 916.03 3928.13 908.03 3930.13 903.03 3932.13 893.029 3933.13 889.029 3935.13 882.029 3937.13 880.029 3939.13 880.029 3941.13 888.029 3942.13 902.03 3944.13 908.03 3946.13 906.03 3948.13 897.029 3949.13 889.029 3951.13 881.029 3953 879" stroke="#5B9BD5" stroke-width="10.3125" stroke-linecap="round" stroke-linejoin="round" stroke-miterlimit="10" fill="none"/></g><g><text fill="#595959" font-family="Calibri,Calibri_MSFontService,sans-serif" font-weight="400" font-size="41" transform="matrix(1 0 0 1 2418.85 1550)">310</text></g><g><text fill="#595959" font-family="Calibri,Calibri_MSFontService,sans-serif" font-weight="400" font-size="41" transform="matrix(1 0 0 1 2418.85 1438)">330</text></g><g><text fill="#595959" font-family="Calibri,Calibri_MSFontService,sans-serif" font-weight="400" font-size="41" transform="matrix(1 0 0 1 2418.85 1325)">350</text></g><g><text fill="#595959" font-family="Calibri,Calibri_MSFontService,sans-serif" font-weight="400" font-size="41" transform="matrix(1 0 0 1 2418.85 1212)">370</text></g><g><text fill="#595959" font-family="Calibri,Calibri_MSFontService,sans-serif" font-weight="400" font-size="41" transform="matrix(1 0 0 1 2418.85 1100)">390</text></g><g><text fill="#595959" font-family="Calibri,Calibri_MSFontService,sans-serif" font-weight="400" font-size="41" transform="matrix(1 0 0 1 2418.85 987)">410</text></g><g><text fill="#595959" font-family="Calibri,Calibri_MSFontService,sans-serif" font-weight="400" font-size="41" transform="matrix(1 0 0 1 2418.85 874)">430</text></g><g><text fill="#595959" font-family="Calibri,Calibri_MSFontService,sans-serif" font-weight="400" font-size="41" transform="matrix(1 0 0 1 2418.85 761)">450</text></g><g><text fill="#595959" font-family="Calibri,Calibri_MSFontService,sans-serif" font-weight="400" font-size="41" transform="matrix(0.707107 -0.707107 0.707107 0.707107 2471.38 1652)">1958</text></g><g><text fill="#595959" font-family="Calibri,Calibri_MSFontService,sans-serif" font-weight="400" font-size="41" transform="matrix(0.707107 -0.707107 0.707107 0.707107 2542.73 1652)">1961</text></g><g><text fill="#595959" font-family="Calibri,Calibri_MSFontService,sans-serif" font-weight="400" font-size="41" transform="matrix(0.707107 -0.707107 0.707107 0.707107 2614.08 1652)">1964</text></g><g><text fill="#595959" font-family="Calibri,Calibri_MSFontService,sans-serif" font-weight="400" font-size="41" transform="matrix(0.707107 -0.707107 0.707107 0.707107 2685.44 1652)">1968</text></g><g><text fill="#595959" font-family="Calibri,Calibri_MSFontService,sans-serif" font-weight="400" font-size="41" transform="matrix(0.707107 -0.707107 0.707107 0.707107 2756.79 1652)">1971</text></g><g><text fill="#595959" font-family="Calibri,Calibri_MSFontService,sans-serif" font-weight="400" font-size="41" transform="matrix(0.707107 -0.707107 0.707107 0.707107 2828.15 1652)">1974</text></g><g><text fill="#595959" font-family="Calibri,Calibri_MSFontService,sans-serif" font-weight="400" font-size="41" transform="matrix(0.707107 -0.707107 0.707107 0.707107 2899.5 1652)">1978</text></g><g><text fill="#595959" font-family="Calibri,Calibri_MSFontService,sans-serif" font-weight="400" font-size="41" transform="matrix(0.707107 -0.707107 0.707107 0.707107 2970.86 1652)">1981</text></g><g><text fill="#595959" font-family="Calibri,Calibri_MSFontService,sans-serif" font-weight="400" font-size="41" transform="matrix(0.707107 -0.707107 0.707107 0.707107 3042.21 1652)">1984</text></g><g><text fill="#595959" font-family="Calibri,Calibri_MSFontService,sans-serif" font-weight="400" font-size="41" transform="matrix(0.707107 -0.707107 0.707107 0.707107 3113.56 1652)">1988</text></g><g><text fill="#595959" font-family="Calibri,Calibri_MSFontService,sans-serif" font-weight="400" font-size="41" transform="matrix(0.707107 -0.707107 0.707107 0.707107 3184.92 1652)">1991</text></g><g><text fill="#595959" font-family="Calibri,Calibri_MSFontService,sans-serif" font-weight="400" font-size="41" transform="matrix(0.707107 -0.707107 0.707107 0.707107 3256.27 1652)">1994</text></g><g><text fill="#595959" font-family="Calibri,Calibri_MSFontService,sans-serif" font-weight="400" font-size="41" transform="matrix(0.707107 -0.707107 0.707107 0.707107 3327.63 1652)">1998</text></g><g><text fill="#595959" font-family="Calibri,Calibri_MSFontService,sans-serif" font-weight="400" font-size="41" transform="matrix(0.707107 -0.707107 0.707107 0.707107 3398.98 1652)">2001</text></g><g><text fill="#595959" font-family="Calibri,Calibri_MSFontService,sans-serif" font-weight="400" font-size="41" transform="matrix(0.707107 -0.707107 0.707107 0.707107 3470.34 1652)">2004</text></g><g><text fill="#595959" font-family="Calibri,Calibri_MSFontService,sans-serif" font-weight="400" font-size="41" transform="matrix(0.707107 -0.707107 0.707107 0.707107 3541.69 1652)">2008</text></g><g><text fill="#595959" font-family="Calibri,Calibri_MSFontService,sans-serif" font-weight="400" font-size="41" transform="matrix(0.707107 -0.707107 0.707107 0.707107 3613.04 1652)">2011</text></g><g><text fill="#595959" font-family="Calibri,Calibri_MSFontService,sans-serif" font-weight="400" font-size="41" transform="matrix(0.707107 -0.707107 0.707107 0.707107 3684.4 1652)">2014</text></g><g><text fill="#595959" font-family="Calibri,Calibri_MSFontService,sans-serif" font-weight="400" font-size="41" transform="matrix(0.707107 -0.707107 0.707107 0.707107 3755.75 1652)">2018</text></g><g><text fill="#595959" font-family="Calibri,Calibri_MSFontService,sans-serif" font-weight="400" font-size="41" transform="matrix(0.707107 -0.707107 0.707107 0.707107 3827.11 1652)">2021</text></g><g><text fill="#595959" font-family="Calibri,Calibri_MSFontService,sans-serif" font-weight="400" font-size="41" transform="matrix(0.707107 -0.707107 0.707107 0.707107 3898.46 1652)">2024</text></g><rect x="2389.5" y="700.5" width="1650" height="990" stroke="#D9D9D9" stroke-width="3.4375" stroke-linejoin="round" stroke-miterlimit="10" fill="none"/></g></svg>