<svg width="1653" height="993" xmlns="http://www.w3.org/2000/svg" xmlns:xlink="http://www.w3.org/1999/xlink" xml:space="preserve" overflow="hidden"><defs><clipPath id="clip0"><rect x="1439" y="630" width="1653" height="993"/></clipPath></defs><g clip-path="url(#clip0)" transform="translate(-1439 -630)"><rect x="1440" y="631" width="1650" height="990" fill="#FFFFFF"/><g><path d="M1594.5 1570.5 3009.5 1570.5M1594.5 1481.55 3009.5 1481.55M1594.5 1392.55 3009.5 1392.55M1594.5 1214.54 3009.5 1214.54M1594.5 1125.54 3009.5 1125.54M1594.5 1036.53 3009.5 1036.53M1594.5 947.531 3009.5 947.531M1594.5 859.528 3009.5 859.528M1594.5 770.525 3009.5 770.525M1594.5 681.5 3009.5 681.5" stroke="#D9D9D9" stroke-width="3.4375" stroke-linejoin="round" stroke-miterlimit="10" fill="none"/></g><g><path d="M1594.5 1303.5 3009.5 1303.5" stroke="#D9D9D9" stroke-width="3.4375" stroke-linejoin="round" stroke-miterlimit="10" fill="none" fill-rule="evenodd"/></g><g><path d="M1599 1352.04 1609.05 1366.04 1618.05 1384.05 1628.05 1397.05 1638.05 1415.05 1648.05 1424.05 1658.05 1428.05 1667.05 1428.05 1677.06 1424.05 1687.06 1419.05 1697.06 1419.05 1706.06 1419.05 1716.06 1424.05 1726.06 1424.05 1736.06 1410.05 1745.06 1406.05 1755.06 1397.05 1765.06 1388.05 1775.06 1379.05 1784.06 1384.05 1794.06 1397.05 1804.06 1410.05 1814.06 1424.05 1823.06 1432.05 1833.06 1446.05 1843.06 1455.05 1853.06 1464.05 1863.06 1473.05 1872.06 1477.05 1882.06 1486.05 1892.06 1490 1902.06 1481.05 1911.06 1464.05 1921.06 1450.05 1931.06 1446.05 1941.06 1441.05 1950.06 1437.05 1960.06 1437.05 1970.06 1441.05 1980.06 1437.05 1989.07 1428.05 1999.07 1424.05 2009.07 1419.05 2019.07 1410.05 2029.07 1406.05 2038.07 1401.05 2048.07 1401.05 2058.07 1397.05 2068.07 1392.05 2077.07 1388.05 2087.07 1388.05 2097.07 1388.05 2107.07 1384.05 2116.07 1379.05 2126.07 1375.05 2136.07 1366.04 2146.07 1352.04 2155.07 1330.04 2165.07 1312.04 2175.07 1290.04 2185.07 1277.04 2194.07 1264.04 2204.07 1259.04 2214.07 1259.04 2224.07 1272.04 2234.07 1286.04 2243.07 1304.04 2253.07 1321.04 2263.07 1335.04 2273.07 1339.04 2282.07 1339.04 2292.08 1335.04 2302.08 1335.04 2312.08 1335.04 2321.08 1335.04 2331.08 1330.04 2341.08 1326.04 2351.08 1321.04 2360.08 1308.04 2370.08 1299.04 2380.08 1290.04 2390.08 1299.04 2400.08 1308.04 2409.08 1317.04 2419.08 1321.04 2429.08 1326.04 2439.08 1330.04 2448.08 1326.04 2458.08 1317.04 2468.08 1312.04 2478.08 1304.04 2487.08 1304.04 2497.08 1304.04 2507.08 1304.04 2517.08 1299.04 2526.08 1295.04 2536.08 1286.04 2546.08 1272.04 2556.08 1250.04 2565.08 1232.04 2575.08 1215.04 2585.08 1210.04 2595.09 1206.04 2605.09 1210.04 2614.09 1210.04 2624.09 1206.04 2634.09 1197.04 2644.09 1184.04 2653.09 1166.04 2663.09 1157.04 2673.09 1157.04 2683.09 1157.04 2692.09 1157.04 2702.09 1157.04 2712.09 1152.04 2722.09 1139.04 2731.09 1126.04 2741.09 1117.04 2751.09 1108.04 2761.09 1095.04 2771.09 1081.04 2780.09 1072.04 2790.09 1059.03 2800.09 1046.03 2810.09 1032.03 2819.09 1028.03 2829.09 1028.03 2839.09 1023.03 2849.09 1019.03 2858.09 1019.03 2868.09 1015.03 2878.09 1006.03 2888.09 992.033 2897.1 975.032 2907.1 952.031 2917.1 935.031 2927.1 917.03 2937.1 899.03 2946.1 890.029 2956.1 886.029 2966.1 872.029 2976.1 850.028 2985.1 823.027 2995.1 801.026 3005 775" stroke="#0070C0" stroke-width="10.3125" stroke-linecap="round" stroke-linejoin="round" stroke-miterlimit="10" fill="none"/></g><g><text fill="#595959" font-family="Calibri,Calibri_MSFontService,sans-serif" font-weight="400" font-size="41" transform="matrix(1 0 0 1 1470.1 1582)">-0.60</text></g><g><text fill="#595959" font-family="Calibri,Calibri_MSFontService,sans-serif" font-weight="400" font-size="41" transform="matrix(1 0 0 1 1470.1 1493)">-0.40</text></g><g><text fill="#595959" font-family="Calibri,Calibri_MSFontService,sans-serif" font-weight="400" font-size="41" transform="matrix(1 0 0 1 1470.1 1404)">-0.20</text></g><g><text fill="#595959" font-family="Calibri,Calibri_MSFontService,sans-serif" font-weight="400" font-size="41" transform="matrix(1 0 0 1 1482.73 1315)">0.00</text></g><g><text fill="#595959" font-family="Calibri,Calibri_MSFontService,sans-serif" font-weight="400" font-size="41" transform="matrix(1 0 0 1 1482.73 1226)">0.20</text></g><g><text fill="#595959" font-family="Calibri,Calibri_MSFontService,sans-serif" font-weight="400" font-size="41" transform="matrix(1 0 0 1 1482.73 1137)">0.40</text></g><g><text fill="#595959" font-family="Calibri,Calibri_MSFontService,sans-serif" font-weight="400" font-size="41" transform="matrix(1 0 0 1 1482.73 1048)">0.60</text></g><g><text fill="#595959" font-family="Calibri,Calibri_MSFontService,sans-serif" font-weight="400" font-size="41" transform="matrix(1 0 0 1 1482.73 959)">0.80</text></g><g><text fill="#595959" font-family="Calibri,Calibri_MSFontService,sans-serif" font-weight="400" font-size="41" transform="matrix(1 0 0 1 1482.73 871)">1.00</text></g><g><text fill="#595959" font-family="Calibri,Calibri_MSFontService,sans-serif" font-weight="400" font-size="41" transform="matrix(1 0 0 1 1482.73 782)">1.20</text></g><g><text fill="#595959" font-family="Calibri,Calibri_MSFontService,sans-serif" font-weight="400" font-size="41" transform="matrix(1 0 0 1 1482.73 693)">1.40</text></g><g><text fill="#595959" font-family="Calibri,Calibri_MSFontService,sans-serif" font-weight="400" font-size="41" transform="matrix(0.707107 -0.707107 0.707107 0.707107 1549.65 1416)">1880</text></g><g><text fill="#595959" font-family="Calibri,Calibri_MSFontService,sans-serif" font-weight="400" font-size="41" transform="matrix(0.707107 -0.707107 0.707107 0.707107 1627.76 1416)">1888</text></g><g><text fill="#595959" font-family="Calibri,Calibri_MSFontService,sans-serif" font-weight="400" font-size="41" transform="matrix(0.707107 -0.707107 0.707107 0.707107 1705.86 1416)">1896</text></g><g><text fill="#595959" font-family="Calibri,Calibri_MSFontService,sans-serif" font-weight="400" font-size="41" transform="matrix(0.707107 -0.707107 0.707107 0.707107 1783.97 1416)">1904</text></g><g><text fill="#595959" font-family="Calibri,Calibri_MSFontService,sans-serif" font-weight="400" font-size="41" transform="matrix(0.707107 -0.707107 0.707107 0.707107 1862.08 1416)">1912</text></g><g><text fill="#595959" font-family="Calibri,Calibri_MSFontService,sans-serif" font-weight="400" font-size="41" transform="matrix(0.707107 -0.707107 0.707107 0.707107 1940.19 1416)">1920</text></g><g><text fill="#595959" font-family="Calibri,Calibri_MSFontService,sans-serif" font-weight="400" font-size="41" transform="matrix(0.707107 -0.707107 0.707107 0.707107 2018.3 1416)">1928</text></g><g><text fill="#595959" font-family="Calibri,Calibri_MSFontService,sans-serif" font-weight="400" font-size="41" transform="matrix(0.707107 -0.707107 0.707107 0.707107 2096.41 1416)">1936</text></g><g><text fill="#595959" font-family="Calibri,Calibri_MSFontService,sans-serif" font-weight="400" font-size="41" transform="matrix(0.707107 -0.707107 0.707107 0.707107 2174.52 1416)">1944</text></g><g><text fill="#595959" font-family="Calibri,Calibri_MSFontService,sans-serif" font-weight="400" font-size="41" transform="matrix(0.707107 -0.707107 0.707107 0.707107 2252.63 1416)">1952</text></g><g><text fill="#595959" font-family="Calibri,Calibri_MSFontService,sans-serif" font-weight="400" font-size="41" transform="matrix(0.707107 -0.707107 0.707107 0.707107 2330.74 1416)">1960</text></g><g><text fill="#595959" font-family="Calibri,Calibri_MSFontService,sans-serif" font-weight="400" font-size="41" transform="matrix(0.707107 -0.707107 0.707107 0.707107 2408.84 1416)">1968</text></g><g><text fill="#595959" font-family="Calibri,Calibri_MSFontService,sans-serif" font-weight="400" font-size="41" transform="matrix(0.707107 -0.707107 0.707107 0.707107 2486.95 1416)">1976</text></g><g><text fill="#595959" font-family="Calibri,Calibri_MSFontService,sans-serif" font-weight="400" font-size="41" transform="matrix(0.707107 -0.707107 0.707107 0.707107 2565.06 1416)">1984</text></g><g><text fill="#595959" font-family="Calibri,Calibri_MSFontService,sans-serif" font-weight="400" font-size="41" transform="matrix(0.707107 -0.707107 0.707107 0.707107 2643.17 1416)">1992</text></g><g><text fill="#595959" font-family="Calibri,Calibri_MSFontService,sans-serif" font-weight="400" font-size="41" transform="matrix(0.707107 -0.707107 0.707107 0.707107 2721.28 1416)">2000</text></g><g><text fill="#595959" font-family="Calibri,Calibri_MSFontService,sans-serif" font-weight="400" font-size="41" transform="matrix(0.707107 -0.707107 0.707107 0.707107 2799.39 1416)">2008</text></g><g><text fill="#595959" font-family="Calibri,Calibri_MSFontService,sans-serif" font-weight="400" font-size="41" transform="matrix(0.707107 -0.707107 0.707107 0.707107 2877.5 1416)">2016</text></g><g><text fill="#595959" font-family="Calibri,Calibri_MSFontService,sans-serif" font-weight="400" font-size="41" transform="matrix(0.707107 -0.707107 0.707107 0.707107 2955.61 1416)">2024</text></g><rect x="1440.5" y="631.5" width="1650" height="990" stroke="#D9D9D9" stroke-width="3.4375" stroke-linejoin="round" stroke-miterlimit="10" fill="none"/></g></svg>