<svg width="1652" height="993" xmlns="http://www.w3.org/2000/svg" xmlns:xlink="http://www.w3.org/1999/xlink" xml:space="preserve" overflow="hidden"><defs><clipPath id="clip0"><rect x="797" y="425" width="1652" height="993"/></clipPath></defs><g clip-path="url(#clip0)" transform="translate(-797 -425)"><rect x="798" y="426" width="1649" height="990" fill="#FFFFFF"/><g><path d="M898.5 1365.5 2368.5 1365.5M898.5 1217.54 2368.5 1217.54M898.5 921.53 2368.5 921.53M898.5 773.526 2368.5 773.526M898.5 624.521 2368.5 624.521M898.5 476.5 2368.5 476.5" stroke="#D9D9D9" stroke-width="3.4375" stroke-linejoin="round" stroke-miterlimit="10" fill="none"/></g><g><path d="M898.5 1069.5 2368.5 1069.5" stroke="#D9D9D9" stroke-width="3.4375" stroke-linejoin="round" stroke-miterlimit="10" fill="none" fill-rule="evenodd"/></g><g><path d="M911 776.025 934.031 675.022 957.031 698.023 980.032 583 1004.03 654.021 1027.03 667.022 1050.03 793.026 1074.04 630.021 1097.04 626.021 1120.04 791.026 1144.04 753.025 1167.04 654.021 1190.04 595.02 1214.04 927.03 1237.04 1028.03 1260.04 685.022 1284.04 772.025 1307.04 761.025 1330.04 759.025 1354.04 930.031 1377.05 926.03 1400.05 1043.03 1424.05 874.029 1447.05 723.024 1470.05 795.026 1493.05 830.027 1517.05 791.026 1540.05 732.024 1563.05 793.026 1587.05 868.028 1610.05 980.032 1633.05 920.03 1657.05 933.031 1680.06 822.027 1703.06 840.028 1727.06 804.026 1750.06 776.025 1773.06 859.028 1797.06 803.026 1820.06 734.024 1843.06 919.03 1867.06 898.029 1890.06 840.028 1913.06 738.024 1937.06 772.025 1960.06 739.024 1983.06 745.024 2007.07 917.03 2030.07 1169.04 2053.07 735.024 2076.07 822.027 2100.07 870.029 2123.07 857.028 2146.07 837.027 2170.07 838.027 2193.07 861.028 2216.07 814.027 2240.07 826.027 2263.07 871.029 2286.07 1283 2310.08 599.02 2333.08 829.027 2356 859.028" stroke="#156082" stroke-width="10.3125" stroke-linecap="round" stroke-linejoin="round" stroke-miterlimit="10" fill="none"/></g><g><text fill="#595959" font-family="Aptos Narrow,Aptos Narrow_MSFontService,sans-serif" font-weight="400" font-stretch="semi-condensed" font-size="41" transform="matrix(1 0 0 1 827.292 1377)">-4</text></g><g><text fill="#595959" font-family="Aptos Narrow,Aptos Narrow_MSFontService,sans-serif" font-weight="400" font-stretch="semi-condensed" font-size="41" transform="matrix(1 0 0 1 827.292 1229)">-2</text></g><g><text fill="#595959" font-family="Aptos Narrow,Aptos Narrow_MSFontService,sans-serif" font-weight="400" font-stretch="semi-condensed" font-size="41" transform="matrix(1 0 0 1 839.919 1081)">0</text></g><g><text fill="#595959" font-family="Aptos Narrow,Aptos Narrow_MSFontService,sans-serif" font-weight="400" font-stretch="semi-condensed" font-size="41" transform="matrix(1 0 0 1 839.919 933)">2</text></g><g><text fill="#595959" font-family="Aptos Narrow,Aptos Narrow_MSFontService,sans-serif" font-weight="400" font-stretch="semi-condensed" font-size="41" transform="matrix(1 0 0 1 839.919 785)">4</text></g><g><text fill="#595959" font-family="Aptos Narrow,Aptos Narrow_MSFontService,sans-serif" font-weight="400" font-stretch="semi-condensed" font-size="41" transform="matrix(1 0 0 1 839.919 636)">6</text></g><g><text fill="#595959" font-family="Aptos Narrow,Aptos Narrow_MSFontService,sans-serif" font-weight="400" font-stretch="semi-condensed" font-size="41" transform="matrix(1 0 0 1 839.919 488)">8</text></g><g><text fill="#595959" font-family="Aptos Narrow,Aptos Narrow_MSFontService,sans-serif" font-weight="400" font-stretch="semi-condensed" font-size="41" transform="matrix(1 0 0 1 868.762 1134)">1961</text></g><g><text fill="#595959" font-family="Aptos Narrow,Aptos Narrow_MSFontService,sans-serif" font-weight="400" font-stretch="semi-condensed" font-size="41" transform="matrix(1 0 0 1 985.358 1134)">1966</text></g><g><text fill="#595959" font-family="Aptos Narrow,Aptos Narrow_MSFontService,sans-serif" font-weight="400" font-stretch="semi-condensed" font-size="41" transform="matrix(1 0 0 1 1101.95 1134)">1971</text></g><g><text fill="#595959" font-family="Aptos Narrow,Aptos Narrow_MSFontService,sans-serif" font-weight="400" font-stretch="semi-condensed" font-size="41" transform="matrix(1 0 0 1 1218.55 1134)">1976</text></g><g><text fill="#595959" font-family="Aptos Narrow,Aptos Narrow_MSFontService,sans-serif" font-weight="400" font-stretch="semi-condensed" font-size="41" transform="matrix(1 0 0 1 1335.15 1134)">1981</text></g><g><text fill="#595959" font-family="Aptos Narrow,Aptos Narrow_MSFontService,sans-serif" font-weight="400" font-stretch="semi-condensed" font-size="41" transform="matrix(1 0 0 1 1451.74 1134)">1986</text></g><g><text fill="#595959" font-family="Aptos Narrow,Aptos Narrow_MSFontService,sans-serif" font-weight="400" font-stretch="semi-condensed" font-size="41" transform="matrix(1 0 0 1 1568.34 1134)">1991</text></g><g><text fill="#595959" font-family="Aptos Narrow,Aptos Narrow_MSFontService,sans-serif" font-weight="400" font-stretch="semi-condensed" font-size="41" transform="matrix(1 0 0 1 1684.94 1134)">1996</text></g><g><text fill="#595959" font-family="Aptos Narrow,Aptos Narrow_MSFontService,sans-serif" font-weight="400" font-stretch="semi-condensed" font-size="41" transform="matrix(1 0 0 1 1801.53 1134)">2001</text></g><g><text fill="#595959" font-family="Aptos Narrow,Aptos Narrow_MSFontService,sans-serif" font-weight="400" font-stretch="semi-condensed" font-size="41" transform="matrix(1 0 0 1 1918.13 1134)">2006</text></g><g><text fill="#595959" font-family="Aptos Narrow,Aptos Narrow_MSFontService,sans-serif" font-weight="400" font-stretch="semi-condensed" font-size="41" transform="matrix(1 0 0 1 2034.72 1134)">2011</text></g><g><text fill="#595959" font-family="Aptos Narrow,Aptos Narrow_MSFontService,sans-serif" font-weight="400" font-stretch="semi-condensed" font-size="41" transform="matrix(1 0 0 1 2151.32 1134)">2016</text></g><g><text fill="#595959" font-family="Aptos Narrow,Aptos Narrow_MSFontService,sans-serif" font-weight="400" font-stretch="semi-condensed" font-size="41" transform="matrix(1 0 0 1 2267.92 1134)">2021</text></g><rect x="798.5" y="426.5" width="1649" height="990" stroke="#D9D9D9" stroke-width="3.4375" stroke-linejoin="round" stroke-miterlimit="10" fill="none"/></g></svg>